# xmcd CD database file
#
# Track frame offsets:
#	150
#	19630
#	42482
#	61965
#
# Disc length: 1128 seconds
#
# Revision: 0
# Processed by: cddbd v1.5.1PL0 Copyright (c) Steve Scherf et al.
# Submitted via: CDex 1.51
#
DISCID=2c046604
DTITLE=Hitomi Shimatani - ANGELUS
DYEAR=1900
DGENRE=J-Pop
TTITLE0=ANGELUSーアンジェラスー
TTITLE1=ZiZiZi-Zip!Zap!Zipangu!
TTITLE2=ＡＮＧＥＬＵＳ−アンジェラス-instrumental
TTITLE3=ZiZiZi-Zip!Zap!Zipangu! instrumental
EXTD=
EXTT0=
EXTT1=
EXTT2=
EXTT3=
PLAYORDER=
